<svg width="18" height="18" viewBox="0 0 18 18" fill="none" xmlns="http://www.w3.org/2000/svg">
<g clip-path="url(#clip0_4_953)">
<path d="M13.1253 4.87466H13.1328M5.24969 1.49939H12.7503C14.8215 1.49939 16.5006 3.17846 16.5006 5.24969V12.7503C16.5006 14.8215 14.8215 16.5006 12.7503 16.5006H5.24969C3.17846 16.5006 1.49939 14.8215 1.49939 12.7503V5.24969C1.49939 3.17846 3.17846 1.49939 5.24969 1.49939ZM12 8.52768C12.0926 9.15191 11.986 9.78944 11.6953 10.3496C11.4047 10.9097 10.9448 11.364 10.3811 11.6477C9.81741 11.9314 9.17862 12.0302 8.55557 11.9299C7.93253 11.8296 7.35696 11.5355 6.91073 11.0893C6.4645 10.643 6.17034 10.0675 6.07009 9.44441C5.96983 8.82137 6.06858 8.18257 6.3523 7.61889C6.63602 7.0552 7.09026 6.59533 7.6504 6.30468C8.21054 6.01403 8.84807 5.90741 9.47231 5.99998C10.1091 6.0944 10.6985 6.3911 11.1537 6.84627C11.6089 7.30144 11.9056 7.89093 12 8.52768Z" stroke="#94A3B8" stroke-width="2" stroke-linecap="round"/>
</g>
<defs>
<clipPath id="clip0_4_953">
<rect width="18" height="18" fill="white"/>
</clipPath>
</defs>
</svg>
